<svg width="24" height="24" viewBox="0 0 24 24" fill="none" xmlns="http://www.w3.org/2000/svg">
<path d="M4.25981 10.1466C3.98737 12.2307 3.82188 14.3483 3.76902 16.494C6.665 17.703 9.41942 19.1835 12.0005 20.9036C14.5816 19.1835 17.336 17.703 20.232 16.494C20.1791 14.3484 20.0136 12.2307 19.7412 10.1467M4.25981 10.1466C3.38411 9.8523 2.49778 9.58107 1.60156 9.3337C4.84695 7.05887 8.3279 5.0972 12.0005 3.49255C15.6732 5.0972 19.1541 7.05888 22.3995 9.33371C21.5033 9.58109 20.6169 9.85233 19.7412 10.1467M4.25981 10.1466C6.94705 11.0499 9.53428 12.1709 12.0005 13.4886C14.4668 12.1709 17.054 11.0499 19.7412 10.1467M6.75049 15C7.1647 15 7.50049 14.6642 7.50049 14.25C7.50049 13.8358 7.1647 13.5 6.75049 13.5C6.33627 13.5 6.00049 13.8358 6.00049 14.25C6.00049 14.6642 6.33627 15 6.75049 15ZM6.75049 15V11.3245C8.44196 10.2735 10.1941 9.31094 12.0005 8.44329M4.99313 19.9926C6.1647 18.8211 6.75049 17.2855 6.75049 15.75V14.25" stroke="#6A7282" stroke-width="1.5" stroke-linecap="round" stroke-linejoin="round"/>
</svg>
