<svg width="24" height="24" viewBox="0 0 24 24" fill="none" xmlns="http://www.w3.org/2000/svg">
<path d="M19.2442 13.5441C19.5228 13.2244 20.0088 13.1908 20.3289 13.4692C20.8202 13.8965 21.2208 14.4181 21.5066 15.0029C21.7926 15.588 21.9579 16.2254 21.993 16.8756C22.028 17.5256 21.932 18.176 21.7108 18.7882C21.4895 19.4006 21.1478 19.9631 20.7051 20.441C20.2625 20.9187 19.7281 21.3031 19.1341 21.5708C18.54 21.8384 17.8974 21.9835 17.2459 21.9987C16.5944 22.0138 15.9465 21.8985 15.3406 21.6587C14.7348 21.419 14.183 21.0597 13.7186 20.6029C13.4164 20.3054 13.4129 19.8193 13.7106 19.5171C14.0083 19.2152 14.4949 19.2109 14.7973 19.5081C15.1151 19.8206 15.4924 20.0669 15.907 20.231C16.3215 20.395 16.7652 20.4743 17.2109 20.464C17.6565 20.4535 18.0953 20.3531 18.5017 20.17C18.9081 19.9869 19.2735 19.7241 19.5764 19.3971C19.8792 19.0703 20.1134 18.6862 20.2648 18.2673C20.4162 17.8483 20.482 17.4024 20.458 16.9576C20.4339 16.5129 20.3213 16.077 20.1257 15.6768C19.9301 15.2765 19.6555 14.9194 19.3192 14.627C18.9994 14.3485 18.9657 13.8639 19.2442 13.5441Z" fill="#6A7282"/>
<path d="M3.66704 13.4612C3.98523 13.1805 4.47088 13.2113 4.75175 13.5291C5.0326 13.8471 5.00286 14.3323 4.6847 14.613C4.35208 14.9063 4.08086 15.2634 3.88819 15.6628C3.69563 16.0621 3.58448 16.4959 3.56197 16.9386C3.53948 17.3813 3.60591 17.8245 3.7571 18.2413C3.90829 18.6581 4.1414 19.0406 4.44255 19.3661C4.74371 19.6917 5.10729 19.9537 5.51124 20.137C5.91525 20.3203 6.35255 20.4216 6.79608 20.434C7.23946 20.4462 7.68149 20.3695 8.09492 20.209C8.50835 20.0484 8.88591 19.8063 9.20464 19.4981C9.50961 19.2034 9.99623 19.2115 10.2914 19.5161C10.5863 19.8208 10.5782 20.3071 10.2733 20.6019C9.80737 21.0525 9.25571 21.406 8.65128 21.6407C8.04687 21.8754 7.40124 21.9867 6.75305 21.9687C6.10479 21.9507 5.46632 21.8037 4.87583 21.5358C4.28535 21.2679 3.75403 20.8848 3.31381 20.409C2.87358 19.9331 2.53314 19.3735 2.31216 18.7642C2.09123 18.1551 1.99409 17.5077 2.02698 16.8606C2.05989 16.2135 2.22272 15.5796 2.50429 14.9959C2.78589 14.4122 3.18089 13.89 3.66704 13.4612Z" fill="#6A7282"/>
<path fill-rule="evenodd" clip-rule="evenodd" d="M16.5784 6.33838C16.8786 6.03861 17.3651 6.03858 17.6651 6.33838C17.9652 6.63823 17.9652 7.12432 17.6651 7.4242L14.8163 10.2707V13.7301L17.6651 16.5766C17.9652 16.8765 17.9652 17.3626 17.6651 17.6624C17.365 17.9623 16.8786 17.9623 16.5784 17.6624L14.6772 15.7628C14.4065 16.4092 13.7683 16.8636 13.0231 16.8636H10.9738C10.2285 16.8636 9.58935 16.4094 9.31872 15.7628L7.41848 17.6624C7.11836 17.9623 6.63189 17.9623 6.33178 17.6624C6.0317 17.3626 6.03167 16.8765 6.33178 16.5766L9.18063 13.7301V10.2707L6.33178 7.4242C6.0317 7.12432 6.03167 6.63824 6.33178 6.33838C6.63189 6.03861 7.11839 6.03858 7.41848 6.33838L9.31872 8.23706C9.58961 7.59103 10.2289 7.13725 10.9738 7.13725H13.0231C13.7679 7.13726 14.4062 7.59121 14.6772 8.23706L16.5784 6.33838ZM10.9738 8.67298C10.8324 8.67298 10.7177 8.78764 10.7176 8.92894V15.0719C10.7176 15.2132 10.8323 15.3278 10.9738 15.3278H13.0231C13.1646 15.3278 13.2793 15.2132 13.2793 15.0719V8.92894C13.2792 8.78765 13.1645 8.67301 13.0231 8.67298H10.9738Z" fill="#6A7282"/>
<path d="M17.2419 2.02013C17.8913 2.03612 18.531 2.1822 19.1231 2.44905C19.7153 2.71598 20.2483 3.09899 20.6901 3.57486C21.1319 4.05073 21.4738 4.61059 21.6958 5.22058C21.9177 5.83055 22.0157 6.47905 21.983 7.12725C21.9502 7.77544 21.7879 8.41138 21.5056 8.99593C21.2233 9.58036 20.8263 10.1027 20.3389 10.5317C20.0205 10.8116 19.5347 10.7805 19.2542 10.4627C18.974 10.1445 19.005 9.65912 19.3232 9.37886C19.6566 9.08539 19.9286 8.72786 20.1217 8.32804C20.3147 7.92833 20.4255 7.49347 20.448 7.05026C20.4703 6.6069 20.4036 6.16271 20.2518 5.74549C20.1 5.32825 19.8655 4.94521 19.5634 4.61968C19.2612 4.29416 18.8967 4.03144 18.4917 3.84881C18.0865 3.66618 17.6482 3.5668 17.2038 3.55586C16.7595 3.54494 16.3177 3.62338 15.904 3.78582C15.4905 3.94826 15.1132 4.19151 14.7953 4.5017C14.4919 4.79761 14.0051 4.79235 13.7086 4.4897C13.4122 4.18654 13.4176 3.70028 13.7206 3.40389C14.1853 2.95029 14.737 2.59357 15.3416 2.35607C15.9462 2.11865 16.5925 2.00415 17.2419 2.02013Z" fill="#6A7282"/>
<path d="M6.76206 2.00113C7.41397 1.98709 8.06251 2.104 8.6683 2.34507C9.27408 2.58621 9.82564 2.9468 10.2894 3.40489C10.5911 3.70307 10.5938 4.19016 10.2954 4.4917C9.99694 4.79275 9.51031 4.79556 9.20865 4.4977C8.89138 4.18425 8.51441 3.93684 8.09993 3.77183C7.6854 3.60684 7.24118 3.52726 6.79508 3.53687C6.34908 3.54654 5.90916 3.64516 5.50224 3.82782C5.09527 4.01054 4.72897 4.27386 4.42554 4.60068C4.12222 4.92749 3.88788 5.31238 3.73609 5.73149C3.58433 6.15066 3.51812 6.59614 3.54196 7.04126C3.56583 7.4864 3.67848 7.92244 3.87418 8.32304C4.06993 8.72371 4.34506 9.0812 4.6817 9.37386C5.00154 9.6522 5.03506 10.1368 4.75675 10.4567C4.47815 10.7765 3.99221 10.811 3.67205 10.5327C3.1801 10.105 2.77937 9.58243 2.49328 8.99693C2.20719 8.41134 2.04183 7.77394 2.00696 7.12325C1.97212 6.4726 2.06829 5.82129 2.29015 5.20858C2.51206 4.59585 2.8553 4.0336 3.2988 3.55586C3.74234 3.07814 4.27795 2.69411 4.87283 2.42706C5.46759 2.16012 6.1102 2.01522 6.76206 2.00113Z" fill="#6A7282"/>
</svg>
